<?xml version="1.0" encoding="UTF-8"?>
<svg width="110px" height="40px" viewBox="0 0 110 40" version="1.1" xmlns="http://www.w3.org/2000/svg" xmlns:xlink="http://www.w3.org/1999/xlink">
    <!-- Generator: Sketch 50.2 (55047) - http://www.bohemiancoding.com/sketch -->
    <title>Group 2</title>
    <desc>Created with Sketch.</desc>
    <defs>
        <polygon id="path-1" points="0.000210926631 0.913 109.809089 0.913 109.809089 40.3332111 0.000210926631 40.3332111"></polygon>
        <polygon id="path-3" points="0 39.4204556 109.809333 39.4204556 109.809333 0.000122222222 0 0.000122222222"></polygon>
    </defs>
    <g id="Page-1" stroke="none" stroke-width="1" fill="none" fill-rule="evenodd">
        <g id="Desktop" transform="translate(-90.000000, -229.000000)">
            <g id="Group-2" transform="translate(90.000000, 228.000000)">
                <g id="Group-3" transform="translate(0.000000, 0.309344)">
                    <mask id="mask-2" fill="white">
                        <use xlink:href="#path-1"></use>
                    </mask>
                    <g id="Clip-2"></g>
                    <path d="M8.06764444,37.1151 L74.0676444,37.1151 L103.266533,20.6224333 L74.0676444,4.13098889 L8.01142222,4.13098889 C5.89453333,5.1051 3.58575556,10.9069889 3.25331111,19.3183222 C2.90742222,28.1134333 4.92042222,35.4871 8.06764444,37.1151 Z M74.9134222,40.3332111 L7.40153333,40.3332111 L7.1082,40.2134333 C1.37108889,37.8667667 -0.285022222,27.4228778 0.0388666667,19.1912111 C0.345644444,11.4056556 2.39408889,2.53598889 7.22797778,0.988655556 L7.71686667,0.912877778 L74.9134222,0.912877778 L109.809089,20.6224333 L74.9134222,40.3332111 Z" id="Fill-1" fill="#020203" mask="url(#mask-2)"></path>
                </g>
                <g id="Group" transform="translate(0.000000, 1.222222)">
                    <path d="M73.7697889,39.3008 C68.0326778,36.9541333 66.3765667,26.5102444 66.7004556,18.2785778 C67.0072333,10.4930222 69.0556778,1.62335556 73.8895667,0.0760222222 L74.8697889,3.14257778 C72.7027889,3.83435556 70.2559,9.73402222 69.9149,18.4056889 C69.5604556,27.4391333 71.6944556,34.9741333 74.9895667,36.3222444 L73.7697889,39.3008 Z" id="Fill-4" fill="#020203"></path>
                    <path d="M94.2993333,27.5326333 C90.475,25.9681889 91.0946667,12.9136333 94.2993333,11.8881889 L106.537444,19.7104111 L94.2993333,27.5326333 Z" id="Fill-6" fill="#020203"></path>
                    <mask id="mask-4" fill="white">
                        <use xlink:href="#path-3"></use>
                    </mask>
                    <g id="Clip-9"></g>
                    <polygon id="Fill-8" fill="#020203" mask="url(#mask-4)" points="2.145 20.5139 68.8074444 20.5139 68.8074444 18.9054556 2.145 18.9054556"></polygon>
                    <polygon id="Fill-10" fill="#020203" mask="url(#mask-4)" points="68.8075667 30.1687222 31.1985667 30.1687222 30.8196778 28.5602778 68.8075667 28.5602778"></polygon>
                    <polygon id="Fill-11" fill="#020203" mask="url(#mask-4)" points="2.145 10.8607889 68.8074444 10.8607889 68.8074444 9.25234444 2.145 9.25234444"></polygon>
                    <path d="M11.5475556,24.9515444 L10.329,24.9515444 C10.5221111,25.8841 10.6186667,26.3497667 10.8105556,27.2811 C10.8252222,27.3544333 10.8887778,27.4069889 10.9621111,27.4069889 L12.0376667,27.4069889 C13.0777778,27.4069889 13.4248889,26.9462111 13.0753333,26.0222111 C12.9543333,25.7044333 12.7612222,25.4453222 12.4972222,25.2485444 C12.232,25.0505444 11.9166667,24.9515444 11.5475556,24.9515444 Z M12.793,29.4004333 L11.4412222,29.4004333 C11.3422222,29.4004333 11.2688889,29.4933222 11.2896667,29.5911 C11.451,30.3745444 11.5328889,30.7656556 11.6954444,31.5491 C11.7101111,31.6224333 11.7736667,31.6737667 11.847,31.6737667 L13.2647778,31.6737667 L13.3295556,31.6737667 C13.827,31.6737667 14.1777778,31.5564333 14.3806667,31.3193222 C14.5823333,31.0846556 14.6214444,30.7949889 14.4931111,30.4539889 C14.2266667,29.7524333 13.6607778,29.4004333 12.793,29.4004333 Z M11.5988889,22.3824333 C12.8333333,22.3824333 13.8172222,22.6562111 14.542,23.2049889 C15.0907778,23.6217667 15.4843333,24.1497667 15.7251111,24.7877667 C15.8082222,25.0065444 15.8742222,25.2375444 15.9231111,25.4795444 C15.983,25.7948778 16.0147778,25.9537667 16.0758889,26.2703222 C16.192,26.8961 16.1492222,27.3849889 15.9402222,27.7357667 C15.7324444,28.0877667 15.499,28.2625444 15.2386667,28.2625444 C15.2521111,28.3163222 15.2594444,28.3419889 15.2716667,28.3945444 C15.5747778,28.3945444 15.9487778,28.5668778 16.3912222,28.9066556 C16.8336667,29.2464333 17.1441111,29.6473222 17.3176667,30.1081 C17.3885556,30.2963222 17.4423333,30.4943222 17.4765556,30.7021 C17.5144444,30.9062111 17.534,31.0088778 17.5731111,31.2129889 C17.7564444,32.1577667 17.6232222,32.8984333 17.1722222,33.4362111 C16.72,33.9752111 15.9096667,34.2441 14.74,34.2441 L9.44166667,34.2441 C9.36711111,34.2441 9.30477778,34.1915444 9.28888889,34.1182111 C8.34411111,29.4994333 7.87233333,27.1906556 6.92755556,22.5718778 C6.90677778,22.4741 6.98133333,22.3824333 7.07911111,22.3824333 L11.5988889,22.3824333 Z" id="Fill-12" fill="#020203" mask="url(#mask-4)"></path>
                    <path d="M26.6009333,22.5077111 C27.5518222,27.1264889 28.0272667,29.4352667 28.9793778,34.0540444 C28.9989333,34.1518222 28.9256,34.2447111 28.8278222,34.2447111 L26.2049333,34.2447111 C26.1303778,34.2447111 26.0668222,34.1921556 26.0521556,34.1188222 C25.7233778,32.5054889 25.5583778,31.7000444 25.2283778,30.0867111 C25.2149333,30.0133778 25.1501556,29.9608222 25.0768222,29.9608222 L22.2278222,29.9608222 C22.1300444,29.9608222 22.0554889,30.0524889 22.0762667,30.1502667 C22.4001556,31.7122667 22.5627111,32.4920444 22.8866,34.0540444 C22.9073778,34.1518222 22.8328222,34.2447111 22.7350444,34.2447111 L20.1133778,34.2447111 C20.0400444,34.2447111 19.9764889,34.1921556 19.9606,34.1188222 C19.0158222,29.5000444 18.5440444,27.1912667 17.5992667,22.5712667 C17.5797111,22.4734889 17.6530444,22.3818222 17.7508222,22.3818222 L20.3578222,22.3818222 C20.4311556,22.3818222 20.4947111,22.4343778 20.5093778,22.5077111 L21.4761556,27.2646 C21.4908222,27.3379333 21.5556,27.3904889 21.6289333,27.3904889 L24.4803778,27.3904889 C24.5781556,27.3904889 24.6514889,27.2988222 24.6319333,27.2010444 C24.2554889,25.3493778 24.0660444,24.4229333 23.6896,22.5712667 C23.6700444,22.4734889 23.7433778,22.3818222 23.8423778,22.3818222 L26.4481556,22.3818222 C26.5227111,22.3818222 26.5862667,22.4343778 26.6009333,22.5077111" id="Fill-13" fill="#020203" mask="url(#mask-4)"></path>
                </g>
            </g>
        </g>
    </g>
</svg>